<svg xmlns="http://www.w3.org/2000/svg" viewBox="0 0 120 120" width="120" height="120">
  <defs>
    <linearGradient id="grad" x1="0%" y1="0%" x2="100%" y2="100%">
      <stop offset="0%" style="stop-color:#8B5CF6;stop-opacity:1" />
      <stop offset="100%" style="stop-color:#6D28D9;stop-opacity:1" />
    </linearGradient>
    <linearGradient id="clip" x1="0%" y1="0%" x2="100%" y2="100%">
      <stop offset="0%" style="stop-color:#C4B5FD;stop-opacity:1" />
      <stop offset="100%" style="stop-color:#F9FAFB;stop-opacity:1" />
    </linearGradient>
  </defs>
  <rect width="120" height="120" rx="24" fill="url(#grad)"/>
  <!-- Paperclip icon -->
  <path d="M72 30 C72 22, 62 22, 62 30 L62 78 C62 90, 46 90, 46 78 L46 38 C46 30, 56 30, 56 38 L56 72 C56 78, 48 78, 48 72 L48 44"
        fill="none" stroke="url(#clip)" stroke-width="6" stroke-linecap="round" stroke-linejoin="round"/>
  <!-- Docker whale hint -->
  <circle cx="88" cy="88" r="16" fill="rgba(255,255,255,0.15)"/>
  <rect x="81" y="83" width="5" height="5" rx="1" fill="rgba(255,255,255,0.5)"/>
  <rect x="88" y="83" width="5" height="5" rx="1" fill="rgba(255,255,255,0.5)"/>
  <rect x="81" y="89" width="5" height="5" rx="1" fill="rgba(255,255,255,0.5)"/>
  <rect x="88" y="89" width="5" height="5" rx="1" fill="rgba(255,255,255,0.5)"/>
</svg>
